<svg width="150" height="150" viewBox="0 0 150 150" fill="none" xmlns="http://www.w3.org/2000/svg">
<path d="M119.895 15.111L93.9761 41.0291C93.0311 41.974 91.4154 41.3048 91.4154 39.9684V38.6598C91.4154 37.3181 89.7885 36.6513 88.8469 37.6071L61.8079 65.0527C61.5259 65.3388 61.141 65.5 60.7393 65.5H35.2533C33.8306 65.5 33.2072 67.2956 34.3238 68.1772L46.0844 77.4632C46.7852 78.0166 46.8503 79.056 46.224 79.6925L17.2342 109.154C16.0842 110.323 17.3747 112.225 18.8857 111.589L26.7072 108.294L2.56063 132.439C1.61567 133.384 0 132.715 0 131.379V1.5C0 0.671575 0.668877 0 1.4973 0C8.43187 0 38.6325 0 74.8381 0C91.755 0 107.361 5.6252 119.895 15.111Z" fill="#00C0FD"/>
<path d="M150 74.8244C150 116.246 116.669 150 75.3371 150C61.779 150 32.3468 150 16.9018 150C15.5655 150 14.9083 148.384 15.8531 147.439L68.1389 95.1454C68.6751 94.6091 69.5273 94.5574 70.1244 95.025L89.3766 110.101C90.3612 110.872 91.8014 110.171 91.8014 108.92V78.9851C91.8014 78.387 92.1568 77.846 92.7057 77.6085L115.589 67.7052C117.083 67.0586 116.621 64.8286 114.993 64.8286H102.086C100.75 64.8286 100.08 63.213 101.025 62.268L133.454 29.8359C134.096 29.1936 135.158 29.2643 135.691 29.9998C144.76 42.5143 150 58.2332 150 74.8244Z" fill="#F063C8"/>
</svg>
